<svg xmlns="http://www.w3.org/2000/svg" version="1.1" id="Layer_1" x="0px" y="0px" width="360px" height="360px" viewBox="0 0 360 360" enable-background="new 0 0 360 360" xml:space="preserve"><path fill="#72C9BF" d="M56.728 265.825c-0.007-2.415 0.411-4.8 1.259-7.162 0.848-2.363 2.075-4.47 3.687-6.334 1.608-1.863 3.583-3.372 5.919-4.529s5.008-1.742 8.018-1.751c3.526-0.011 6.583 0.778 9.169 2.37 2.586 1.59 4.495 3.66 5.726 6.22l-5.892 4.088c-0.449-1.115-1.027-2.053-1.732-2.812 -0.711-0.758-1.483-1.359-2.318-1.803 -0.836-0.443-1.7-0.766-2.593-0.967 -0.892-0.201-1.748-0.303-2.564-0.3 -1.821 0.005-3.416 0.4-4.787 1.185 -1.373 0.785-2.512 1.802-3.417 3.047 -0.907 1.247-1.588 2.658-2.051 4.238 -0.458 1.581-0.685 3.15-0.68 4.709 0.005 1.743 0.279 3.426 0.821 5.038 0.542 1.614 1.31 3.032 2.296 4.256 0.987 1.224 2.171 2.206 3.546 2.941 1.376 0.741 2.88 1.106 4.516 1.102 0.854-0.003 1.727-0.115 2.618-0.343 0.889-0.224 1.751-0.578 2.586-1.064s1.604-1.109 2.306-1.873c0.704-0.766 1.277-1.686 1.72-2.762l6.305 3.599c-0.59 1.491-1.45 2.8-2.58 3.939 -1.128 1.133-2.416 2.094-3.863 2.88 -1.445 0.784-2.967 1.384-4.56 1.795 -1.599 0.413-3.173 0.622-4.735 0.627 -2.749 0.008-5.266-0.58-7.555-1.762 -2.287-1.182-4.26-2.728-5.918-4.633 -1.657-1.906-2.945-4.075-3.863-6.508C57.195 270.83 56.735 268.352 56.728 265.825z"/><path fill="#72C9BF" d="M113.829 285.99c-2.785 0.009-5.331-0.551-7.637-1.678 -2.308-1.126-4.289-2.623-5.946-4.494 -1.661-1.868-2.938-4.01-3.835-6.422 -0.896-2.409-1.351-4.881-1.358-7.407 -0.008-2.636 0.46-5.16 1.399-7.578 0.939-2.417 2.25-4.556 3.936-6.42 1.684-1.859 3.676-3.341 5.974-4.443 2.299-1.102 4.806-1.659 7.517-1.667 2.783-0.008 5.331 0.568 7.635 1.733 2.308 1.16 4.28 2.688 5.918 4.577 1.64 1.889 2.91 4.041 3.809 6.453 0.898 2.409 1.35 4.861 1.357 7.349 0.008 2.637-0.457 5.152-1.396 7.553 -0.939 2.397-2.245 4.52-3.91 6.362 -1.667 1.84-3.649 3.313-5.947 4.416C119.045 285.43 116.542 285.982 113.829 285.99zM102.797 265.966c0.005 1.711 0.261 3.362 0.765 4.96 0.506 1.595 1.235 3.002 2.186 4.227 0.952 1.224 2.114 2.2 3.491 2.943 1.374 0.735 2.937 1.104 4.681 1.099 1.783-0.005 3.351-0.39 4.706-1.154 1.353-0.768 2.491-1.783 3.415-3.05 0.925-1.264 1.626-2.686 2.105-4.267 0.479-1.577 0.716-3.185 0.711-4.822 -0.005-1.706-0.271-3.36-0.795-4.952 -0.526-1.598-1.263-3.005-2.213-4.229s-2.104-2.195-3.463-2.913c-1.357-0.721-2.888-1.08-4.597-1.075 -1.785 0.006-3.352 0.394-4.704 1.157 -1.355 0.765-2.503 1.773-3.446 3.017 -0.943 1.247-1.654 2.662-2.133 4.242C103.028 262.729 102.792 264.335 102.797 265.966z"/><path fill="#72C9BF" d="M137.612 265.588c-0.007-2.415 0.411-4.8 1.259-7.162 0.846-2.363 2.075-4.47 3.687-6.334 1.609-1.863 3.583-3.372 5.918-4.529s5.008-1.742 8.018-1.751c3.527-0.011 6.584 0.778 9.169 2.37 2.586 1.59 4.495 3.66 5.728 6.22l-5.893 4.088c-0.449-1.115-1.027-2.053-1.734-2.812 -0.708-0.758-1.481-1.359-2.318-1.803 -0.835-0.443-1.7-0.766-2.592-0.967s-1.746-0.303-2.562-0.3c-1.821 0.005-3.418 0.4-4.787 1.185 -1.373 0.785-2.513 1.802-3.418 3.047 -0.905 1.247-1.59 2.658-2.05 4.238 -0.458 1.581-0.686 3.15-0.681 4.709 0.005 1.744 0.279 3.426 0.823 5.038 0.542 1.614 1.308 3.032 2.296 4.256 0.985 1.224 2.169 2.206 3.544 2.941 1.376 0.741 2.881 1.106 4.518 1.102 0.853-0.003 1.725-0.115 2.616-0.343 0.891-0.223 1.753-0.578 2.586-1.064 0.834-0.486 1.603-1.109 2.306-1.873 0.706-0.766 1.277-1.686 1.721-2.762l6.304 3.599c-0.59 1.491-1.448 2.8-2.58 3.939 -1.13 1.134-2.416 2.094-3.861 2.88 -1.445 0.784-2.967 1.384-4.564 1.795 -1.595 0.413-3.173 0.622-4.733 0.627 -2.747 0.008-5.264-0.58-7.553-1.762 -2.289-1.182-4.259-2.728-5.918-4.633 -1.659-1.906-2.947-4.075-3.863-6.508C138.082 270.593 137.62 268.114 137.612 265.588z"/><path fill="#72C9BF" d="M194.716 285.753c-2.787 0.009-5.331-0.551-7.64-1.678 -2.306-1.126-4.288-2.623-5.945-4.494 -1.658-1.868-2.936-4.01-3.833-6.422 -0.898-2.409-1.352-4.881-1.359-7.407 -0.008-2.636 0.458-5.16 1.397-7.578 0.94-2.417 2.252-4.556 3.937-6.42 1.683-1.859 3.674-3.341 5.975-4.443 2.3-1.102 4.805-1.659 7.516-1.667 2.784-0.008 5.331 0.568 7.637 1.733 2.307 1.16 4.279 2.688 5.918 4.577 1.639 1.89 2.909 4.041 3.808 6.453 0.898 2.409 1.352 4.861 1.359 7.349 0.008 2.637-0.459 5.152-1.398 7.553 -0.942 2.397-2.243 4.52-3.91 6.362 -1.665 1.84-3.649 3.313-5.946 4.416C199.929 285.192 197.425 285.745 194.716 285.753zM183.68 265.729c0.006 1.711 0.264 3.362 0.768 4.96 0.506 1.595 1.235 3.003 2.186 4.227 0.953 1.224 2.115 2.2 3.49 2.943 1.375 0.735 2.937 1.104 4.683 1.099 1.783-0.005 3.351-0.39 4.704-1.154 1.352-0.768 2.492-1.783 3.417-3.05 0.924-1.264 1.625-2.686 2.104-4.267 0.479-1.577 0.716-3.185 0.711-4.822 -0.005-1.706-0.271-3.36-0.795-4.951 -0.524-1.599-1.262-3.006-2.213-4.229 -0.95-1.224-2.104-2.194-3.462-2.913 -1.358-0.721-2.89-1.08-4.6-1.075 -1.783 0.006-3.351 0.394-4.703 1.158 -1.355 0.764-2.502 1.772-3.446 3.016 -0.942 1.247-1.654 2.662-2.131 4.242C183.914 262.491 183.676 264.098 183.68 265.729z"/><path fill="#72C9BF" d="M251.757 285.306l-0.076-26.178 -10.141 19.523 -4.175 0.012L227.112 259.2l0.077 26.178 -7.688 0.022 -0.116-39.549 8.244-0.024 11.766 22.468 11.744-22.536 8.187-0.024 0.115 39.549L251.757 285.306z"/><path fill="#72C9BF" d="M284.121 285.491c-2.785 0.008-5.33-0.551-7.637-1.678 -2.304-1.126-4.289-2.623-5.945-4.494 -1.657-1.868-2.938-4.011-3.834-6.423 -0.899-2.408-1.353-4.881-1.36-7.407 -0.008-2.636 0.461-5.159 1.399-7.577 0.94-2.418 2.251-4.557 3.936-6.421 1.684-1.859 3.677-3.341 5.977-4.443 2.298-1.102 4.802-1.658 7.517-1.666 2.785-0.009 5.329 0.568 7.634 1.733 2.309 1.16 4.28 2.688 5.92 4.577s2.909 4.04 3.807 6.452c0.898 2.41 1.351 4.861 1.357 7.349 0.008 2.637-0.456 5.153-1.396 7.554 -0.943 2.396-2.244 4.519-3.91 6.361 -1.667 1.84-3.649 3.313-5.947 4.416C289.338 284.93 286.833 285.483 284.121 285.491zM273.09 265.467c0.005 1.711 0.26 3.361 0.768 4.96 0.502 1.594 1.233 3.002 2.183 4.226 0.951 1.224 2.113 2.201 3.491 2.944 1.373 0.735 2.937 1.104 4.683 1.099 1.781-0.006 3.349-0.39 4.703-1.155 1.353-0.768 2.492-1.782 3.415-3.05 0.926-1.264 1.627-2.686 2.105-4.266 0.48-1.578 0.717-3.185 0.712-4.822 -0.005-1.706-0.271-3.361-0.795-4.952 -0.527-1.598-1.264-3.005-2.214-4.229 -0.949-1.224-2.104-2.195-3.463-2.914 -1.357-0.721-2.891-1.079-4.598-1.074 -1.784 0.005-3.352 0.394-4.703 1.157 -1.353 0.764-2.504 1.773-3.446 3.016 -0.942 1.247-1.654 2.662-2.132 4.243C273.32 262.229 273.085 263.836 273.09 265.467z"/><path fill="#333334" d="M56.852 308.312c-0.005-1.731 0.294-3.452 0.897-5.161 0.604-1.709 1.482-3.246 2.626-4.617 1.148-1.367 2.567-2.484 4.257-3.343s3.617-1.289 5.783-1.295c2.572-0.008 4.761 0.573 6.564 1.746 1.805 1.173 3.144 2.679 4.014 4.514l-1.216 0.578c-0.545-1.029-1.177-1.895-1.896-2.597 -0.721-0.702-1.5-1.267-2.341-1.7 -0.842-0.429-1.709-0.737-2.603-0.925 -0.894-0.184-1.787-0.278-2.682-0.276 -1.922 0.006-3.633 0.395-5.134 1.17 -1.5 0.778-2.762 1.791-3.789 3.041 -1.025 1.247-1.799 2.659-2.323 4.229 -0.524 1.57-0.785 3.156-0.781 4.756 0.005 1.759 0.325 3.451 0.951 5.077 0.626 1.618 1.491 3.046 2.59 4.273 1.103 1.23 2.397 2.207 3.889 2.932 1.491 0.729 3.092 1.09 4.795 1.085 0.922-0.003 1.862-0.12 2.823-0.351 0.96-0.234 1.886-0.586 2.78-1.065 0.892-0.479 1.718-1.083 2.472-1.813 0.755-0.735 1.405-1.615 1.941-2.646l1.221 0.479c-0.484 1.086-1.146 2.052-1.981 2.891 -0.837 0.845-1.771 1.55-2.798 2.119 -1.027 0.573-2.108 1.002-3.246 1.291 -1.135 0.291-2.26 0.433-3.371 0.436 -1.948 0.006-3.75-0.421-5.404-1.283 -1.654-0.863-3.074-1.988-4.256-3.381 -1.181-1.389-2.106-2.972-2.776-4.741C57.193 311.959 56.858 310.153 56.852 308.312z"/><path fill="#333334" d="M95.318 322.819l-0.084-28.835 11.861-0.034c1.192-0.004 2.294 0.249 3.312 0.761 1.018 0.512 1.894 1.179 2.626 2.003 0.733 0.824 1.306 1.762 1.713 2.818 0.411 1.055 0.616 2.126 0.619 3.204 0.003 1.112-0.162 2.17-0.498 3.173 -0.337 1.003-0.82 1.899-1.454 2.682 -0.634 0.79-1.383 1.441-2.249 1.958 -0.866 0.518-1.825 0.832-2.882 0.942l7.306 11.269 -1.625 0.005 -7.223-11.106 -10.073 0.029 0.033 11.128L95.318 322.819zM96.664 310.389l10.723-0.031c1.003-0.003 1.91-0.221 2.719-0.658 0.812-0.435 1.501-1.007 2.068-1.71 0.566-0.709 1.004-1.522 1.312-2.443 0.309-0.919 0.463-1.855 0.46-2.806 -0.002-0.971-0.19-1.91-0.557-2.817 -0.369-0.908-0.866-1.705-1.49-2.395 -0.625-0.686-1.353-1.239-2.178-1.658 -0.827-0.416-1.714-0.624-2.664-0.621l-10.437 0.03L96.664 310.389z"/><path fill="#333334" d="M148.972 321.363l0.003 1.299 -19.049 0.056 -0.085-28.835 18.685-0.055 0.004 1.299 -17.306 0.051 0.036 12.145 15.154-0.044 0.004 1.299 -15.154 0.044 0.038 12.794L148.972 321.363z"/><path fill="#333334" d="M159.983 322.63l12.345-28.871 1.178-0.004 12.514 28.799 -1.542 0.004 -4.297-9.938 -14.458 0.043 -4.236 9.962L159.983 322.63zM172.941 295.543l-6.819 15.902 13.609-0.039L172.941 295.543z"/><path fill="#333334" d="M215.791 294.93l-10.804 0.032 0.081 27.536 -1.42 0.004 -0.081-27.536 -10.807 0.031 -0.004-1.299 23.03-0.067L215.791 294.93z"/><path fill="#333334" d="M228.872 322.428l-0.085-28.794 1.38-0.004 0.085 28.794L228.872 322.428z"/><path fill="#333334" d="M244.464 293.547l11.698 27.057 11.455-27.125 1.502-0.004 -12.302 28.871 -1.34 0.004 -12.475-28.799L244.464 293.547z"/><path fill="#333334" d="M301.086 320.917l0.004 1.299 -19.051 0.056 -0.085-28.835 18.685-0.055 0.004 1.299 -17.303 0.051 0.035 12.145 15.15-0.044 0.004 1.299 -15.15 0.044 0.038 12.794L301.086 320.917z"/><path fill="#333334" d="M227.329 171.485c-11.367 13.534-28.41 22.143-47.466 22.143 -34.225 0-61.972-27.747-61.972-61.972 0-34.229 27.747-61.972 61.972-61.972 17.798 0 33.832 7.515 45.136 19.531l29.355-16.09c-17.374-22.062-44.295-36.271-74.492-36.271 -52.274 0-94.801 42.529-94.801 94.801 0 52.276 42.527 94.801 94.801 94.801 31.309 0 59.11-15.264 76.383-38.733L227.329 171.485z"/><path fill="#EF4748" d="M268.831 163.632c0 0 13.265-30.953-1.106-67.438l-60.806 34.27L268.831 163.632z"/></svg>